<mxfile host="app.diagrams.net" modified="2023-11-14T10:16:50.044Z" agent="Mozilla/5.0 (X11; Ubuntu; Linux x86_64; rv:109.0) Gecko/20100101 Firefox/119.0" etag="aVUMRtbn18DXwMwxfQsZ" version="22.1.0" type="github">
  <diagram id="R2lEEEUBdFMjLlhIrx00" name="Page-1">
    <mxGraphModel dx="2284" dy="739" grid="1" gridSize="10" guides="1" tooltips="1" connect="1" arrows="1" fold="1" page="1" pageScale="1" pageWidth="850" pageHeight="1100" math="0" shadow="0" extFonts="Permanent Marker^https://fonts.googleapis.com/css?family=Permanent+Marker">
      <root>
        <mxCell id="0" />
        <mxCell id="1" parent="0" />
        <mxCell id="wPcaytLTPEd1WjbZsXBc-1" value="PERSONAJES" style="whiteSpace=wrap;html=1;align=center;fillColor=#e1d5e7;strokeColor=#9673a6;" vertex="1" parent="1">
          <mxGeometry x="670" y="410" width="100" height="40" as="geometry" />
        </mxCell>
        <mxCell id="wPcaytLTPEd1WjbZsXBc-2" value="ESCENARIO" style="whiteSpace=wrap;html=1;align=center;fillColor=#d5e8d4;strokeColor=#82b366;" vertex="1" parent="1">
          <mxGeometry x="315" y="700" width="100" height="40" as="geometry" />
        </mxCell>
        <mxCell id="wPcaytLTPEd1WjbZsXBc-10" style="edgeStyle=orthogonalEdgeStyle;rounded=0;orthogonalLoop=1;jettySize=auto;html=1;endArrow=none;endFill=0;fillColor=#d5e8d4;strokeColor=#82b366;" edge="1" parent="1" source="wPcaytLTPEd1WjbZsXBc-6" target="wPcaytLTPEd1WjbZsXBc-2">
          <mxGeometry relative="1" as="geometry" />
        </mxCell>
        <mxCell id="wPcaytLTPEd1WjbZsXBc-6" value="riesgo" style="ellipse;whiteSpace=wrap;html=1;align=center;fillColor=#d5e8d4;strokeColor=#82b366;" vertex="1" parent="1">
          <mxGeometry x="310" y="820" width="100" height="40" as="geometry" />
        </mxCell>
        <mxCell id="wPcaytLTPEd1WjbZsXBc-9" style="edgeStyle=orthogonalEdgeStyle;rounded=0;orthogonalLoop=1;jettySize=auto;html=1;entryX=0;entryY=0.5;entryDx=0;entryDy=0;endArrow=none;endFill=0;fillColor=#d5e8d4;strokeColor=#82b366;" edge="1" parent="1" source="wPcaytLTPEd1WjbZsXBc-7" target="wPcaytLTPEd1WjbZsXBc-2">
          <mxGeometry relative="1" as="geometry" />
        </mxCell>
        <mxCell id="wPcaytLTPEd1WjbZsXBc-7" value="codigo_escenario" style="ellipse;whiteSpace=wrap;html=1;align=center;fontStyle=4;fillColor=#d5e8d4;strokeColor=#82b366;" vertex="1" parent="1">
          <mxGeometry x="170" y="780" width="100" height="40" as="geometry" />
        </mxCell>
        <mxCell id="wPcaytLTPEd1WjbZsXBc-8" value="caracterisiticas" style="ellipse;whiteSpace=wrap;html=1;align=center;fillColor=#d5e8d4;strokeColor=#82b366;" vertex="1" parent="1">
          <mxGeometry x="440" y="780" width="100" height="40" as="geometry" />
        </mxCell>
        <mxCell id="wPcaytLTPEd1WjbZsXBc-11" style="edgeStyle=orthogonalEdgeStyle;rounded=0;orthogonalLoop=1;jettySize=auto;html=1;entryX=0.88;entryY=0.95;entryDx=0;entryDy=0;entryPerimeter=0;endArrow=none;endFill=0;fillColor=#d5e8d4;strokeColor=#82b366;" edge="1" parent="1" source="wPcaytLTPEd1WjbZsXBc-8" target="wPcaytLTPEd1WjbZsXBc-2">
          <mxGeometry relative="1" as="geometry" />
        </mxCell>
        <mxCell id="wPcaytLTPEd1WjbZsXBc-22" style="edgeStyle=orthogonalEdgeStyle;rounded=0;orthogonalLoop=1;jettySize=auto;html=1;endArrow=none;endFill=0;strokeColor=#9673a6;fillColor=#e1d5e7;" edge="1" parent="1" source="wPcaytLTPEd1WjbZsXBc-12" target="wPcaytLTPEd1WjbZsXBc-1">
          <mxGeometry relative="1" as="geometry" />
        </mxCell>
        <mxCell id="wPcaytLTPEd1WjbZsXBc-12" value="fuerza" style="ellipse;whiteSpace=wrap;html=1;align=center;strokeColor=#9673a6;fillColor=#e1d5e7;" vertex="1" parent="1">
          <mxGeometry x="780" y="350" width="100" height="40" as="geometry" />
        </mxCell>
        <mxCell id="wPcaytLTPEd1WjbZsXBc-19" style="edgeStyle=orthogonalEdgeStyle;rounded=0;orthogonalLoop=1;jettySize=auto;html=1;endArrow=none;endFill=0;strokeColor=#9673a6;fillColor=#e1d5e7;" edge="1" parent="1" source="wPcaytLTPEd1WjbZsXBc-13" target="wPcaytLTPEd1WjbZsXBc-1">
          <mxGeometry relative="1" as="geometry" />
        </mxCell>
        <mxCell id="wPcaytLTPEd1WjbZsXBc-13" value="habilidad" style="ellipse;whiteSpace=wrap;html=1;align=center;strokeColor=#9673a6;fillColor=#e1d5e7;" vertex="1" parent="1">
          <mxGeometry x="720" y="260" width="100" height="40" as="geometry" />
        </mxCell>
        <mxCell id="wPcaytLTPEd1WjbZsXBc-18" style="edgeStyle=orthogonalEdgeStyle;rounded=0;orthogonalLoop=1;jettySize=auto;html=1;entryX=0.36;entryY=0.025;entryDx=0;entryDy=0;endArrow=none;endFill=0;strokeColor=#9673a6;fillColor=#e1d5e7;entryPerimeter=0;" edge="1" parent="1" source="wPcaytLTPEd1WjbZsXBc-15" target="wPcaytLTPEd1WjbZsXBc-1">
          <mxGeometry relative="1" as="geometry" />
        </mxCell>
        <mxCell id="wPcaytLTPEd1WjbZsXBc-15" value="nº_escenario" style="ellipse;whiteSpace=wrap;html=1;align=center;strokeColor=#9673a6;fillColor=#e1d5e7;" vertex="1" parent="1">
          <mxGeometry x="670" y="190" width="100" height="40" as="geometry" />
        </mxCell>
        <mxCell id="wPcaytLTPEd1WjbZsXBc-20" style="edgeStyle=orthogonalEdgeStyle;rounded=0;orthogonalLoop=1;jettySize=auto;html=1;entryX=0.5;entryY=1;entryDx=0;entryDy=0;endArrow=none;endFill=0;strokeColor=#9673a6;fillColor=#e1d5e7;" edge="1" parent="1" source="wPcaytLTPEd1WjbZsXBc-16" target="wPcaytLTPEd1WjbZsXBc-1">
          <mxGeometry relative="1" as="geometry" />
        </mxCell>
        <mxCell id="wPcaytLTPEd1WjbZsXBc-16" value="inteligencia" style="ellipse;whiteSpace=wrap;html=1;align=center;strokeColor=#9673a6;fillColor=#e1d5e7;" vertex="1" parent="1">
          <mxGeometry x="700" y="510" width="100" height="40" as="geometry" />
        </mxCell>
        <mxCell id="wPcaytLTPEd1WjbZsXBc-21" style="edgeStyle=orthogonalEdgeStyle;rounded=0;orthogonalLoop=1;jettySize=auto;html=1;endArrow=none;endFill=0;strokeColor=#9673a6;fillColor=#e1d5e7;" edge="1" parent="1" source="wPcaytLTPEd1WjbZsXBc-17" target="wPcaytLTPEd1WjbZsXBc-1">
          <mxGeometry relative="1" as="geometry">
            <mxPoint x="790" y="460" as="targetPoint" />
          </mxGeometry>
        </mxCell>
        <mxCell id="wPcaytLTPEd1WjbZsXBc-17" value="nombre" style="ellipse;whiteSpace=wrap;html=1;align=center;fontStyle=4;strokeColor=#9673a6;fillColor=#e1d5e7;" vertex="1" parent="1">
          <mxGeometry x="810" y="440" width="100" height="40" as="geometry" />
        </mxCell>
        <mxCell id="wPcaytLTPEd1WjbZsXBc-27" style="edgeStyle=orthogonalEdgeStyle;rounded=0;orthogonalLoop=1;jettySize=auto;html=1;endArrow=none;endFill=0;fillColor=#f8cecc;strokeColor=#b85450;" edge="1" parent="1" source="wPcaytLTPEd1WjbZsXBc-23" target="wPcaytLTPEd1WjbZsXBc-28">
          <mxGeometry relative="1" as="geometry">
            <mxPoint x="110" y="420" as="targetPoint" />
          </mxGeometry>
        </mxCell>
        <mxCell id="wPcaytLTPEd1WjbZsXBc-23" value="nombre_escnenario" style="ellipse;whiteSpace=wrap;html=1;align=center;fillColor=#f8cecc;strokeColor=#b85450;" vertex="1" parent="1">
          <mxGeometry x="-120" y="330" width="120" height="50" as="geometry" />
        </mxCell>
        <mxCell id="wPcaytLTPEd1WjbZsXBc-26" style="edgeStyle=orthogonalEdgeStyle;rounded=0;orthogonalLoop=1;jettySize=auto;html=1;endArrow=none;endFill=0;fillColor=#f8cecc;strokeColor=#b85450;" edge="1" parent="1" source="wPcaytLTPEd1WjbZsXBc-25" target="wPcaytLTPEd1WjbZsXBc-28">
          <mxGeometry relative="1" as="geometry">
            <mxPoint x="60" y="440" as="targetPoint" />
          </mxGeometry>
        </mxCell>
        <mxCell id="wPcaytLTPEd1WjbZsXBc-25" value="código_objeto" style="ellipse;whiteSpace=wrap;html=1;align=center;fontStyle=4;fillColor=#f8cecc;strokeColor=#b85450;" vertex="1" parent="1">
          <mxGeometry x="-90" y="420" width="100" height="40" as="geometry" />
        </mxCell>
        <mxCell id="wPcaytLTPEd1WjbZsXBc-28" value="OBJETOS" style="shape=ext;margin=3;double=1;whiteSpace=wrap;html=1;align=center;fillColor=#f8cecc;strokeColor=#b85450;" vertex="1" parent="1">
          <mxGeometry x="70" y="420" width="90" height="40" as="geometry" />
        </mxCell>
      </root>
    </mxGraphModel>
  </diagram>
</mxfile>
